<?xml version="1.0" encoding="UTF-8"?>
<svg width="132px" height="40px" viewBox="0 0 132 40" version="1.1" xmlns="http://www.w3.org/2000/svg" xmlns:xlink="http://www.w3.org/1999/xlink">
    <!-- Generator: Sketch 62 (91390) - https://sketch.com -->
    <title>gokada-logo</title>
    <desc>Created with Sketch.</desc>
    <g id="gokada-logo" stroke="none" stroke-width="1" fill="none" fill-rule="evenodd">
        <g>
            <g id="brand/g-logo">
                <g id="brand/img-logo">
                    <circle id="Oval" fill="#00C795" cx="20" cy="20" r="20"></circle>
                    <path d="M29.7349998,18.2252999 L30.5033699,29.7467037 L20.0483198,30.3999092 C17.6752842,30.4099156 15.4494827,29.6167739 13.6664499,28.2475019 C11.8964424,26.8882327 10.5627567,24.9612308 9.95439477,22.6885281 C9.34600334,20.4157151 9.53878716,18.0803022 10.3932168,16.0189402 C11.2475877,13.9577199 12.7635257,12.1705017 14.8015632,10.993968 C16.8394293,9.81753335 19.1454419,9.39825119 21.3582279,9.6887164 C24.0671871,10.0443127 26.6363942,11.4636275 28.4028772,13.8595164 L23.3230874,18.9374782 L29.7349998,18.2252999 Z M21.6980832,21.7000631 L21.6980832,19.1179693 L21.861858,19.0997786 L21.4242392,18.7130172 C21.0730316,18.4026248 20.6092688,18.2508778 20.1424401,18.2935087 C19.4848263,18.2780962 19.058553,18.4430681 18.7485392,18.7529704 C18.4387629,19.0626352 18.2737449,19.4884024 18.2940607,19.9258792 C18.2737449,20.5117995 18.4387629,20.9375667 18.7485392,21.2472315 C19.0657661,21.5643443 19.5047254,21.729704 19.9533509,21.7000631 L21.6980832,21.7000631 Z" id="Shape" stroke="#00C795" stroke-width="3.2" fill="#FFFFFF"></path>
                </g>
            </g>
            <path d="M59.6204871,28 C63.6887949,28 66.6034035,25.5057034 66.6034035,21.2471483 L66.6034035,19.0874525 L59.7115686,19.0874525 L59.7115686,22.0988593 L62.5350957,22.0988593 C62.497145,23.4524715 61.5407891,24.3193916 59.6508476,24.3193916 C57.4648911,24.3193916 56.3415524,22.7072243 56.3415524,19.9695817 C56.3415524,17.269962 57.5559726,15.6806084 59.6812081,15.6806084 C61.0018901,15.6806084 61.897525,16.2889734 62.1555893,17.3536122 L66.4212405,17.3536122 C66.094865,14.2281369 63.2637478,12 59.5901266,12 C55.4003767,12 52,14.8897338 52,20.0304183 C52,24.9581749 55.0815914,28 59.6204871,28 Z M74.2542668,28 C78.0493301,28 80.2960076,25.5665399 80.2960076,21.9771863 C80.2960076,18.3878327 78.0493301,15.9543726 74.2542668,15.9543726 C70.4592035,15.9543726 68.2125261,18.3878327 68.2125261,21.9771863 C68.2125261,25.5665399 70.4592035,28 74.2542668,28 Z M74.2846273,24.8973384 C73.1612886,24.8973384 72.4933575,23.7794677 72.4933575,21.9467681 C72.4933575,20.1140684 73.1612886,18.9961977 74.2846273,18.9961977 C75.3472451,18.9961977 76.0151762,20.1140684 76.0151762,21.9467681 C76.0151762,23.7794677 75.3472451,24.8973384 74.2846273,24.8973384 Z M86.1859585,27.7870722 L86.1859585,24.4714829 L86.815939,23.6730038 L89.1916486,27.7870722 L93.9886086,27.7870722 L89.9051205,21.2243346 L93.8671666,16.1064639 L89.1612881,16.1064639 L86.3377611,20.0304183 L86.1859585,20.0304183 L86.1859585,12.2129278 L81.9962087,12.2129278 L81.9962087,27.7870722 L86.1859585,27.7870722 Z M98.2087314,27.9695817 C99.7267567,27.9695817 100.872866,27.4524715 101.578748,26.1444867 L101.669829,26.1444867 L101.669829,27.7870722 L105.586334,27.7870722 L105.586334,19.7870722 C105.586334,17.6273764 103.54459,15.9543726 100.212525,15.9543726 C96.7286567,15.9543726 95.0132881,17.7794677 94.8690757,19.9087452 L98.72486,19.9087452 C98.8235316,19.1863118 99.3548405,18.8441065 100.151804,18.8441065 C100.880456,18.8441065 101.396585,19.1787072 101.396585,19.7870722 L101.396585,19.8174905 C101.396585,20.4942966 100.652752,20.7072243 98.6944995,20.851711 C96.2884293,21.026616 94.4136681,22 94.4136681,24.5627376 C94.4136681,26.8897338 95.9772342,27.9695817 98.2087314,27.9695817 Z M99.5749541,25.3231939 C98.8614822,25.3231939 98.3605339,24.973384 98.3605339,24.3193916 C98.3605339,23.7186312 98.785581,23.2547529 99.7571172,23.1026616 C100.425048,22.9961977 100.986718,22.8593156 101.426945,22.6768061 L101.426945,23.6501901 C101.426945,24.7148289 100.52372,25.3231939 99.5749541,25.3231939 Z M111.81025,27.9391635 C113.449718,27.9391635 114.573056,27.0570342 115.058824,25.8707224 L115.149906,25.8707224 L115.149906,27.7870722 L119.309295,27.7870722 L119.309295,12.2129278 L115.119545,12.2129278 L115.119545,18.1444867 L115.058824,18.1444867 C114.603417,16.9581749 113.510439,15.9543726 111.77989,15.9543726 C109.472491,15.9543726 107.225814,17.7186312 107.225814,21.9467681 C107.225814,25.9923954 109.320689,27.9391635 111.81025,27.9391635 Z M113.358636,24.7148289 C112.204937,24.7148289 111.537006,23.6806084 111.537006,21.9467681 C111.537006,20.2129278 112.204937,19.1787072 113.358636,19.1787072 C114.512335,19.1787072 115.210627,20.2129278 115.210627,21.9467681 C115.210627,23.6501901 114.512335,24.7148289 113.358636,24.7148289 Z M124.622397,27.9695817 C126.140422,27.9695817 127.286531,27.4524715 127.992413,26.1444867 L128.083495,26.1444867 L128.083495,27.7870722 L132,27.7870722 L132,19.7870722 C132,17.6273764 129.958256,15.9543726 126.62619,15.9543726 C123.142322,15.9543726 121.426954,17.7794677 121.282741,19.9087452 L125.138526,19.9087452 C125.237197,19.1863118 125.768506,18.8441065 126.565469,18.8441065 C127.294122,18.8441065 127.81025,19.1787072 127.81025,19.7870722 L127.81025,19.8174905 C127.81025,20.4942966 127.066418,20.7072243 125.108165,20.851711 C122.702095,21.026616 120.827334,22 120.827334,24.5627376 C120.827334,26.8897338 122.3909,27.9695817 124.622397,27.9695817 Z M125.98862,25.3231939 C125.275148,25.3231939 124.7742,24.973384 124.7742,24.3193916 C124.7742,23.7186312 125.199247,23.2547529 126.170783,23.1026616 C126.838714,22.9961977 127.400383,22.8593156 127.840611,22.6768061 L127.840611,23.6501901 C127.840611,24.7148289 126.937386,25.3231939 125.98862,25.3231939 Z" id="Gokada" fill="#181D25" fill-rule="nonzero"></path>
        </g>
    </g>
</svg>